# xmcd CD database file
# Copyright (C) 1995 Ti Kan
#
# Track frame offsets:
#	182
#	11310
#	26215
#	42362
#	54085
#	89835
#	103382
#	123817
#	144447
#	167892
#
# Disc length: 2422 seconds
#
# Revision: 2
# Processed by: cddbd v1.4b41PL1 Copyright (c) Steve Scherf et al.
# Submitted via: NotifyCDPlayer(CDDB) 1.07
#
DISCID=8209740a
DTITLE=New Riders Of The Purple Sage - N.R.P.S
DYEAR=1900
DGENRE=
TTITLE0=I Don't Know You
TTITLE1=Whatcha Gonna Do
TTITLE2=Portland Woman
TTITLE3=Henry
TTITLE4=Dirty Business
TTITLE5=GlendaleTrain
TTITLE6=Garden of Eden
TTITLE7=All I Ever Wanted
TTITLE8=Last Lonely Eagle
TTITLE9=Lousiana Lady
EXTD=
EXTT0=
EXTT1=
EXTT2=
EXTT3=
EXTT4=
EXTT5=
EXTT6=
EXTT7=
EXTT8=
EXTT9=
PLAYORDER=
